<?xml version="1.0" encoding="UTF-8" standalone="no"?>
<!-- Created with Inkscape (http://www.inkscape.org/) -->

<svg
   xmlns:dc="http://purl.org/dc/elements/1.1/"
   xmlns:cc="http://creativecommons.org/ns#"
   xmlns:rdf="http://www.w3.org/1999/02/22-rdf-syntax-ns#"
   xmlns:svg="http://www.w3.org/2000/svg"
   xmlns="http://www.w3.org/2000/svg"
   xmlns:sodipodi="http://sodipodi.sourceforge.net/DTD/sodipodi-0.dtd"
   xmlns:inkscape="http://www.inkscape.org/namespaces/inkscape"
   width="299.17575"
   height="343.67935"
   id="svg2"
   version="1.1"
   inkscape:version="0.48.5 r10040"
   sodipodi:docname="logo.svg"
   inkscape:export-filename="/home/wblankenship/Development/peerweb2.0/docs/imgs/logo.png"
   inkscape:export-xdpi="180.43047"
   inkscape:export-ydpi="180.43047">
  <defs
     id="defs4" />
  <sodipodi:namedview
     id="base"
     pagecolor="#ffffff"
     bordercolor="#666666"
     borderopacity="1.0"
     inkscape:pageopacity="0.0"
     inkscape:pageshadow="2"
     inkscape:zoom="2.8"
     inkscape:cx="171.39368"
     inkscape:cy="124.17437"
     inkscape:document-units="px"
     inkscape:current-layer="layer1"
     showgrid="false"
     fit-margin-top="0"
     fit-margin-left="0"
     fit-margin-right="0"
     fit-margin-bottom="0"
     inkscape:window-width="2878"
     inkscape:window-height="1599"
     inkscape:window-x="0"
     inkscape:window-y="0"
     inkscape:window-maximized="0" />
  <metadata
     id="metadata7">
    <rdf:RDF>
      <cc:Work
         rdf:about="">
        <dc:format>image/svg+xml</dc:format>
        <dc:type
           rdf:resource="http://purl.org/dc/dcmitype/StillImage" />
        <dc:title></dc:title>
      </cc:Work>
    </rdf:RDF>
  </metadata>
  <g
     inkscape:label="Layer 1"
     inkscape:groupmode="layer"
     id="layer1"
     transform="translate(-0.41977185,-724.2014)">
    <path
       sodipodi:type="star"
       style="opacity:0.98999999;fill:#222831;fill-opacity:1;stroke:#2d4059;stroke-width:11.5;stroke-linejoin:round;stroke-miterlimit:4;stroke-opacity:1;stroke-dasharray:none;stroke-dashoffset:0"
       id="path2985"
       sodipodi:sides="6"
       sodipodi:cx="128.03683"
       sodipodi:cy="26.753736"
       sodipodi:r1="166.08968"
       sodipodi:r2="143.83788"
       sodipodi:arg1="1.5707963"
       sodipodi:arg2="2.0943951"
       inkscape:flatsided="true"
       inkscape:rounded="0"
       inkscape:randomized="0"
       d="m 128.03684,192.84341 -143.837882,-83.04483 -4e-6,-166.089678 143.837876,-83.044842 143.83788,83.044835 1e-5,166.089675 z"
       transform="translate(21.970818,869.28734)" />
    <g
       id="g3972"
       transform="matrix(1.05,0,0,1.05,-7.5088376,-44.807624)">
      <g
         transform="translate(-0.75761446,-1.0101526)"
         id="g3773">
        <path
           style="fill:none;stroke:#ff5722;stroke-width:2.5;stroke-linecap:round;stroke-linejoin:miter;stroke-miterlimit:4;stroke-opacity:1;stroke-dasharray:none"
           d="M 57.073619,91.403499 C 149.25004,247.72461 241.93153,90.645885 241.93153,90.645885"
           id="path3763"
           inkscape:connector-curvature="0"
           transform="translate(0,752.36218)" />
        <path
           style="fill:none;stroke:#ff5722;stroke-width:2.5;stroke-linecap:round;stroke-linejoin:miter;stroke-miterlimit:4;stroke-opacity:1;stroke-dasharray:none"
           d="m 60.104077,196.7119 c 91.418803,-157.836333 182.332533,0 182.332533,0"
           id="path3765"
           inkscape:connector-curvature="0"
           transform="translate(0,752.36218)" />
        <path
           style="fill:none;stroke:#ff5722;stroke-width:2.5;stroke-linecap:round;stroke-linejoin:miter;stroke-miterlimit:4;stroke-opacity:1;stroke-dasharray:none"
           d="m 57.326157,91.403499 c 0,0 184.605373,-0.505076 94.449263,159.099031 C 57.578695,92.413652 241.679,91.150961 241.679,91.150961"
           id="path3767"
           inkscape:connector-curvature="0"
           transform="translate(0,752.36218)" />
        <path
           style="fill:none;stroke:#ff5722;stroke-width:2.5;stroke-linecap:round;stroke-linejoin:miter;stroke-miterlimit:4;stroke-opacity:1;stroke-dasharray:none"
           d="m 242.18407,196.20683 c -181.827455,0 -91.4188,-156.321111 -91.4188,-156.321111"
           id="path3769"
           inkscape:connector-curvature="0"
           transform="translate(0,752.36218)" />
        <path
           style="fill:none;stroke:#ff5722;stroke-width:2.5;stroke-linecap:round;stroke-linejoin:miter;stroke-miterlimit:4;stroke-opacity:1;stroke-dasharray:none"
           d="M 60.356615,196.96444 C 241.17392,195.70175 150.76527,39.885719 150.76527,39.885719"
           id="path3771"
           inkscape:connector-curvature="0"
           transform="translate(0,752.36218)" />
      </g>
      <path
         transform="matrix(1.1,0,0,1.1,15.834139,824.10979)"
         d="m 121.97592,161.86858 -83.551105,-48.23825 -2e-6,-96.476508 83.551107,-48.238257 83.55111,48.238253 0,96.476512 z"
         inkscape:randomized="0"
         inkscape:rounded="0"
         inkscape:flatsided="true"
         sodipodi:arg2="2.0943951"
         sodipodi:arg1="1.5707963"
         sodipodi:r2="83.551109"
         sodipodi:r1="96.476509"
         sodipodi:cy="65.392075"
         sodipodi:cx="121.97592"
         sodipodi:sides="6"
         id="path3757"
         style="opacity:0.98999999;fill:#222831;fill-opacity:0;stroke:#eeeeee;stroke-width:11.5;stroke-linejoin:round;stroke-miterlimit:4;stroke-opacity:1;stroke-dasharray:none;stroke-dashoffset:0"
         sodipodi:type="star" />
      <g
         id="g3964">
        <path
           sodipodi:type="arc"
           style="opacity:0.98999999;fill:#ff5722;fill-opacity:1;stroke:#ff5722;stroke-width:2.5;stroke-linecap:round;stroke-linejoin:miter;stroke-miterlimit:4;stroke-opacity:1;stroke-dasharray:none;stroke-dashoffset:0"
           id="path3780"
           sodipodi:cx="58.715118"
           sodipodi:cy="92.539917"
           sodipodi:rx="11.995562"
           sodipodi:ry="11.995562"
           d="m 70.71068,92.539917 c 0,6.624966 -5.370596,11.995563 -11.995562,11.995563 -6.624965,0 -11.995561,-5.370597 -11.995561,-11.995563 0,-6.624966 5.370596,-11.995562 11.995561,-11.995562 6.624966,0 11.995562,5.370596 11.995562,11.995562 z"
           transform="matrix(0.78471671,0,0,0.78471671,15.377694,772.53704)" />
        <path
           sodipodi:type="arc"
           style="opacity:0.98999999;fill:#ff5722;fill-opacity:1;stroke:#ff5722;stroke-width:2.5;stroke-linecap:round;stroke-linejoin:miter;stroke-miterlimit:4;stroke-opacity:1;stroke-dasharray:none;stroke-dashoffset:0"
           id="path3780-2"
           sodipodi:cx="58.715118"
           sodipodi:cy="92.539917"
           sodipodi:rx="11.995562"
           sodipodi:ry="11.995562"
           d="m 70.71068,92.539917 c 0,6.624966 -5.370596,11.995563 -11.995562,11.995563 -6.624965,0 -11.995561,-5.370597 -11.995561,-11.995563 0,-6.624966 5.370596,-11.995562 11.995561,-11.995562 6.624966,0 11.995562,5.370596 11.995562,11.995562 z"
           transform="matrix(0.78471671,0,0,0.78471671,103.93292,721.39805)" />
        <path
           sodipodi:type="arc"
           style="opacity:0.98999999;fill:#ff5722;fill-opacity:1;stroke:#ff5722;stroke-width:2.5;stroke-linecap:round;stroke-linejoin:miter;stroke-miterlimit:4;stroke-opacity:1;stroke-dasharray:none;stroke-dashoffset:0"
           id="path3780-2-1"
           sodipodi:cx="58.715118"
           sodipodi:cy="92.539917"
           sodipodi:rx="11.995562"
           sodipodi:ry="11.995562"
           d="m 70.71068,92.539917 c 0,6.624966 -5.370596,11.995563 -11.995562,11.995563 -6.624965,0 -11.995561,-5.370597 -11.995561,-11.995563 0,-6.624966 5.370596,-11.995562 11.995561,-11.995562 6.624966,0 11.995562,5.370596 11.995562,11.995562 z"
           transform="matrix(0.78471671,0,0,0.78471671,192.06873,771.65314)" />
        <path
           sodipodi:type="arc"
           style="opacity:0.98999999;fill:#ff5722;fill-opacity:1;stroke:#ff5722;stroke-width:2.5;stroke-linecap:round;stroke-linejoin:miter;stroke-miterlimit:4;stroke-opacity:1;stroke-dasharray:none;stroke-dashoffset:0"
           id="path3780-6"
           sodipodi:cx="58.715118"
           sodipodi:cy="92.539917"
           sodipodi:rx="11.995562"
           sodipodi:ry="11.995562"
           d="m 70.71068,92.539917 c 0,6.624966 -5.370596,11.995563 -11.995562,11.995563 -6.624965,0 -11.995561,-5.370597 -11.995561,-11.995563 0,-6.624966 5.370596,-11.995562 11.995561,-11.995562 6.624966,0 11.995562,5.370596 11.995562,11.995562 z"
           transform="matrix(0.78471671,0,0,0.78471671,15.544571,874.18362)" />
        <path
           sodipodi:type="arc"
           style="opacity:0.98999999;fill:#ff5722;fill-opacity:1;stroke:#ff5722;stroke-width:2.5;stroke-linecap:round;stroke-linejoin:miter;stroke-miterlimit:4;stroke-opacity:1;stroke-dasharray:none;stroke-dashoffset:0"
           id="path3780-6-7"
           sodipodi:cx="58.715118"
           sodipodi:cy="92.539917"
           sodipodi:rx="11.995562"
           sodipodi:ry="11.995562"
           d="m 70.71068,92.539917 c 0,6.624966 -5.370596,11.995563 -11.995562,11.995563 -6.624965,0 -11.995561,-5.370597 -11.995561,-11.995563 0,-6.624966 5.370596,-11.995562 11.995561,-11.995562 6.624966,0 11.995562,5.370596 11.995562,11.995562 z"
           transform="matrix(0.78471671,0,0,0.78471671,104.18546,925.7014)" />
        <path
           sodipodi:type="arc"
           style="opacity:0.98999999;fill:#ff5722;fill-opacity:1;stroke:#ff5722;stroke-width:2.5;stroke-linecap:round;stroke-linejoin:miter;stroke-miterlimit:4;stroke-opacity:1;stroke-dasharray:none;stroke-dashoffset:0"
           id="path3780-6-7-2"
           sodipodi:cx="58.715118"
           sodipodi:cy="92.539917"
           sodipodi:rx="11.995562"
           sodipodi:ry="11.995562"
           d="m 70.71068,92.539917 c 0,6.624966 -5.370596,11.995563 -11.995562,11.995563 -6.624965,0 -11.995561,-5.370597 -11.995561,-11.995563 0,-6.624966 5.370596,-11.995562 11.995561,-11.995562 6.624966,0 11.995562,5.370596 11.995562,11.995562 z"
           transform="matrix(0.78471671,0,0,0.78471671,192.82634,874.18362)" />
      </g>
    </g>
  </g>
</svg>
